<svg width="238" height="238" viewBox="0 0 238 238" fill="none" xmlns="http://www.w3.org/2000/svg">
<rect width="238" height="238" fill="white"/>
<path d="M170.389 29L193.999 55.3232L192.896 56.7314V56.7842C186.274 66.4689 182.37 77.7251 181.583 89.3984C180.813 99.2694 183.867 109.312 186.828 119.012C190.214 130.107 193.693 141.518 191.25 152.481C187.054 171.223 153.498 184.385 139.157 190.005C137.272 190.742 135.771 191.335 134.854 191.743C127.83 194.836 124.364 198.902 122.664 201.903C121.325 204.268 118.955 208.666 118.946 208.682C118.946 208.682 116.569 204.18 115.241 201.903C113.541 198.902 110.076 194.849 103.038 191.729C102.122 191.322 100.634 190.742 98.7354 190.005C84.407 184.372 50.8383 171.197 46.6689 152.455C44.2123 141.478 47.7182 130.041 51.0908 118.985C54.105 109.285 57.1724 99.2562 56.4023 89.3721C54.8489 69.3807 45.1958 56.8777 45.1016 56.7578L44 55.3496L67.6357 29.0264L69.0967 29.7236C83.8016 35.905 99.5674 39.2136 115.528 39.4736L117.074 39.4893H120.885C137.395 39.4451 153.728 36.1154 168.915 29.6973L170.389 29ZM70.5049 171.961C81.2872 178.423 93.6896 183.267 100.329 185.899C102.268 186.663 103.795 187.268 104.791 187.702C112.758 191.216 116.848 195.942 118.946 199.627C121.044 196.021 125.134 191.295 133.102 187.781C134.098 187.294 135.625 186.741 137.563 185.978C150.099 181.081 183.296 168.026 186.961 151.508C188.89 142.859 186.701 133.807 183.873 124.3L182.698 120.131C179.631 110.01 176.445 99.6384 177.281 88.9512C177.888 81.0109 179.784 73.2196 182.897 65.8789L70.5049 171.961ZM50.3867 148.494C50.4975 149.519 50.6613 150.539 50.8779 151.547L50.8115 151.481C52.3917 158.22 58.7796 164.394 66.7471 169.658L188.063 55.1523L170.243 35.3037L50.3867 148.494ZM148.095 127.08C148.899 126.831 149.735 126.694 150.577 126.672C151.407 126.692 152.231 126.83 153.021 127.08V123.329L172.515 128.594V129.094C173.232 139.768 168.69 156.246 157.164 163.445C156.712 163.735 156.221 164.024 155.729 164.274V151.284L154.773 149.376L154.641 149.494V164.867C154.163 165.078 153.685 165.288 153.207 165.473V150.416C152.955 150.521 152.676 150.587 152.41 150.679V165.775L150.976 166.196V150.916H150.192V166.196C149.701 166.078 149.237 165.92 148.759 165.775V150.679C148.493 150.587 148.214 150.521 147.975 150.416V165.473C147.484 165.288 147.005 165.078 146.541 164.867V149.534C146.496 149.491 146.446 149.45 146.395 149.415L145.438 151.323V164.314C144.947 164.051 144.483 163.787 144.005 163.498C132.452 156.285 127.884 139.781 128.601 129.081V128.581L148.095 123.316V127.08ZM129.942 129.673C129.438 139.768 133.607 154.759 143.965 161.774V155.72C141.529 154.34 139.507 152.343 138.106 149.933C136.706 147.522 135.978 144.787 135.997 142.006C135.997 135.425 141.548 129.699 146.62 127.527V125.119L129.942 129.673ZM154.441 127.554C159.514 129.659 165.065 135.451 165.065 142.032C165.095 144.807 164.378 147.54 162.989 149.95C161.601 152.36 159.591 154.361 157.164 155.746V161.774C167.455 154.759 171.612 139.741 171.12 129.712L154.441 125.158V127.554ZM71.3262 132.358C72.3552 131.871 73.5186 131.737 74.6328 131.977C76.0065 132.394 77.2407 133.171 78.2051 134.227C79.0874 135.11 79.7552 136.182 80.1572 137.359C80.3828 138.351 80.355 139.382 80.0771 140.36C79.8186 141.159 79.4378 141.913 78.9482 142.598L89.957 143.979L84.4189 149.244L73.916 148.428L79.2275 154.062L74.4072 158.707L59.3086 142.913L67.4756 135.24C68.6128 134.101 69.9098 133.131 71.3262 132.358ZM156.633 141.874C156.978 142.677 157.159 143.541 157.164 144.414C157.175 145.839 156.708 147.228 155.836 148.362L157.164 150.994V152.877C158.436 151.291 159.084 149.3 158.986 147.276C158.888 145.252 158.052 143.333 156.633 141.874ZM144.469 141.86C143.05 143.319 142.214 145.239 142.116 147.263C142.019 149.287 142.666 151.277 143.938 152.863V150.981L145.266 148.362C144.396 147.228 143.93 145.839 143.938 144.414C143.942 143.536 144.122 142.668 144.469 141.86ZM150.551 128.027C146.195 128.028 137.498 134.135 137.498 142.032C137.49 144.014 137.89 145.977 138.673 147.801C139.456 149.625 140.606 151.271 142.053 152.64C141.164 151.153 140.687 149.46 140.672 147.731C140.657 146.003 141.104 144.302 141.967 142.8C142.83 141.298 144.079 140.049 145.587 139.181C147.094 138.312 148.807 137.855 150.551 137.854C152.294 137.854 154.008 138.312 155.516 139.181C157.023 140.049 158.272 141.298 159.136 142.8C159.999 144.301 160.446 146.003 160.431 147.731C160.416 149.46 159.939 151.153 159.05 152.64C160.497 151.272 161.648 149.625 162.431 147.802C163.214 145.978 163.613 144.014 163.604 142.032C163.604 134.583 155.411 128.027 150.551 128.027ZM151.554 139.364C150.548 139.168 149.505 139.272 148.56 139.662C147.614 140.053 146.806 140.713 146.238 141.559C145.671 142.404 145.369 143.398 145.372 144.414C145.379 145.772 145.927 147.072 146.897 148.031C147.867 148.99 149.181 149.53 150.551 149.534C151.575 149.534 152.578 149.233 153.43 148.668C154.282 148.103 154.945 147.301 155.337 146.362C155.728 145.424 155.83 144.391 155.629 143.395C155.428 142.399 154.933 141.484 154.208 140.767C153.482 140.05 152.559 139.561 151.554 139.364ZM71.7109 138.202C70.8451 138.384 70.0642 138.847 69.4932 139.518L67.3291 141.545L71.1406 145.467L73.2119 143.532C73.6155 143.086 73.9797 142.606 74.3008 142.098C74.5603 141.74 74.6787 141.299 74.6328 140.86C74.4621 140.276 74.1465 139.741 73.7158 139.307C73.1963 138.72 72.4878 138.33 71.7109 138.202ZM49.5107 55.5859C55.9945 65.6365 59.825 77.1416 60.6514 89.043C61.488 99.7303 58.3015 110.154 55.2207 120.223V120.235C52.8705 128.04 50.56 135.542 50.2148 142.755L162.342 36.9229C148.812 41.4935 134.617 43.8255 120.329 43.8271L118.946 43.8193H117.074C100.986 43.7729 85.0547 40.7218 70.1143 34.8301L68.6719 34.251L49.5107 55.5859ZM99.4238 135.146L94.5068 139.762L79.4785 124.032L84.3955 119.417L99.4238 135.146ZM109.984 111.628C111.364 112.953 112.524 114.486 113.423 116.169C113.999 117.493 114.121 118.968 113.769 120.367C113.305 122.106 112.33 123.669 110.967 124.855C109.748 126.108 108.264 127.078 106.624 127.698C105.374 128.08 104.037 128.08 102.787 127.698C101.37 127.235 100.076 126.461 99.002 125.435L103.092 120.394C103.572 120.916 104.133 121.36 104.752 121.71C105.156 121.935 105.62 122.032 106.08 121.986C106.462 121.91 106.811 121.717 107.076 121.434C107.328 121.227 107.519 120.955 107.629 120.649C107.739 120.344 107.763 120.015 107.7 119.696C107.398 118.772 106.857 117.942 106.133 117.287L96.9043 107.692L101.817 103.073L109.984 111.628ZM123.928 88.6738L115.708 96.4004L118.099 98.9004L125.721 91.7412L128.788 94.9395L121.152 102.112L124.128 105.219L132.586 97.2559L135.999 100.822L122.613 113.392L107.582 97.6631L120.715 85.3184L123.928 88.6738ZM144.192 77.1582L158.692 79.29L152.651 84.9629L140.01 83.3574L146.781 90.4902L141.882 95.084L126.837 79.3555L131.736 74.7627L138.682 81.9492L137.752 69.0771L143.396 63.8125L144.192 77.1582ZM178.568 60.7852L173.442 65.6016L170.202 63.7197L164.639 68.9844L166.338 72.3018L161.332 77.0127L152.263 55.6777L157.574 50.6631L178.568 60.7852ZM93.5176 62.5088V50.2949H97.7139V71.6172H93.292L86.2412 56.7578V71.6172H82.0449V50.2949H87.6748L93.5176 62.5088ZM106.027 59.7578L111.87 50.2949H117.195L110.675 60.1924L117.461 71.6172H111.91L106.917 62.957L106.027 64.4043V71.6172H101.433V50.2949H106.027V59.7578ZM67.4111 58.4023H73.666V50.2949H78.2607V71.6035H73.666V63.4961H67.4111V71.6035H62.8037V50.2949H67.4111V58.4023ZM162.447 64.6152L165.927 61.2715L158.77 57.3232L162.447 64.6152Z" fill="#009FF5"/>
</svg>
