<svg width="62" height="74" viewBox="0 0 62 74" fill="none" xmlns="http://www.w3.org/2000/svg">
<path d="M31.009 6.08163C30.7749 6.08163 30.5107 6.08763 30.2466 6.08763C20.3947 6.08763 12.6741 3.09185 10.4888 2.14929L2.66016 10.9385C3.77082 12.5895 6.65853 17.5244 7.21086 24.7167C7.54706 29.1173 6.25029 33.4099 4.99554 37.5583C4.02297 40.7703 3.09241 43.8621 2.94833 46.8339L48.7255 3.24194C45.0093 4.5147 38.5975 6.2017 31.009 6.08163Z" fill="white"/>
<path d="M51.9566 2.59949L3.02148 49.1992C3.06951 49.6194 3.13555 50.0397 3.22561 50.4539C3.83797 53.2336 6.46153 55.7731 9.70346 57.9404L59.2329 10.7763L51.9566 2.59949Z" fill="#55B4E6"/>
<path d="M57.1197 15.219L11.2344 58.913C15.635 61.5786 20.708 63.5837 23.4096 64.6584C24.2021 64.9706 24.8265 65.2167 25.2347 65.4028C28.4826 66.8497 30.1576 68.7948 31.0101 70.3138C31.8626 68.7948 33.5376 66.8497 36.7856 65.4028C37.1938 65.2227 37.8182 64.9766 38.6107 64.6584C43.7197 62.6352 57.2938 57.268 58.8007 50.4599C59.7012 46.3895 58.4044 42.103 57.0356 37.5643C55.7809 33.4158 54.4841 29.1233 54.8203 24.7226C55.1205 20.8383 56.0991 17.6204 57.1137 15.219" fill="white"/>
<path d="M61.2008 11.4248L61.6511 10.8484L52.0093 0.00600357L51.409 0.294175C51.3249 0.3362 42.8479 4.32857 31.8013 4.32257C31.5492 4.32257 31.291 4.32257 31.0088 4.32257C30.7507 4.32257 30.4985 4.32257 30.2464 4.32257C19.2238 4.32257 10.7228 0.324193 10.6387 0.288171L10.0444 0L0.390625 10.8364L0.840893 11.4188C0.876914 11.4668 4.82126 16.6179 5.45163 24.8548C5.76382 28.9252 4.51508 33.0557 3.30236 37.048C1.92154 41.6047 0.498689 46.3175 1.49528 50.8382C3.2003 58.5588 16.9064 63.986 22.7539 66.3034C23.5284 66.6096 24.1347 66.8497 24.513 67.0178C27.3887 68.2966 28.7995 69.9716 29.4899 71.2083C30.0122 72.1449 31.0028 74 31.0028 74C31.0028 74 31.9754 72.1869 32.5217 71.2083C33.2121 69.9716 34.635 68.2966 37.4987 67.0238C37.8709 66.8558 38.4833 66.6156 39.2577 66.3094C45.1112 63.992 58.8114 58.5768 60.5224 50.8562C61.525 46.3355 60.0961 41.6227 58.7213 37.066C57.5146 33.0737 56.2659 28.9432 56.578 24.8728C57.2084 16.6719 61.1588 11.4908 61.1948 11.4368M4.99536 37.5583C6.25011 33.4099 7.55288 29.1173 7.21068 24.7167C6.65835 17.5184 3.77063 12.5895 2.65997 10.9385L10.4886 2.14928C12.6739 3.09184 20.3945 6.08762 30.2464 6.08762C30.5105 6.08762 30.7747 6.08762 31.0088 6.08162C38.5973 6.20769 45.0032 4.51468 48.7254 3.24193L2.94815 46.8338C3.09223 43.8621 4.02278 40.7702 4.99536 37.5583ZM3.22431 50.454C3.13426 50.0398 3.06822 49.6195 3.02019 49.1992L51.9553 2.59955L59.2316 10.7764L9.70216 57.9404C6.46624 55.7672 3.83667 53.2276 3.22431 50.454ZM57.0403 37.5643C58.4091 42.103 59.7059 46.3956 58.8054 50.46C57.2985 57.2681 43.7244 62.6352 38.6154 64.6584C37.8229 64.9706 37.1985 65.2168 36.7903 65.4029C33.5423 66.8497 31.8673 68.7949 31.0148 70.3138C30.1623 68.7949 28.4873 66.8497 25.2394 65.4029C24.8312 65.2228 24.2068 64.9706 23.4143 64.6584C20.7127 63.5898 15.6397 61.5786 11.2391 58.919L57.1184 15.219C56.1038 17.6265 55.1252 20.8384 54.825 24.7227C54.4828 29.1233 55.7856 33.4159 57.0403 37.5643Z" fill="#D0A15E"/>
<path d="M12.8057 53.4198L6.66406 46.942L10.002 43.7781C10.6204 43.1898 11.1427 42.7935 11.569 42.5954C11.9952 42.3913 12.4455 42.3373 12.9198 42.4333C13.3941 42.5294 13.9884 42.9496 14.3786 43.3639C14.7209 43.7241 15.0811 44.2464 15.1711 44.6546C15.2672 45.0629 15.2552 45.4711 15.1411 45.8854C15.0691 46.1495 14.913 46.4557 14.6788 46.8099L19.1695 47.3803L16.9062 49.5235L12.6196 49.1933L14.8049 51.5167L12.7937 53.4198H12.8057ZM11.4669 47.9686L12.3074 47.1701C12.3975 47.0801 12.5476 46.888 12.7577 46.5758C12.8658 46.4257 12.9078 46.2576 12.8898 46.0655C12.8718 45.8794 12.6496 45.5672 12.5175 45.4291C12.3194 45.219 11.9352 44.9548 11.6951 44.9728C11.4549 44.9848 11.1547 45.1649 10.7885 45.5131L9.90599 46.3476L11.4609 47.9686H11.4669Z" fill="#D0A15E"/>
<path d="M16.9271 37.2054L14.9219 39.1042L21.0561 45.582L23.0613 43.6831L16.9271 37.2054Z" fill="#D0A15E"/>
<path d="M22.0098 32.4194L24.015 30.5162L27.3469 34.0343C28.0494 34.7728 28.5116 35.3971 28.7518 35.9074C28.9859 36.4177 29.0339 36.9941 28.8899 37.6365C28.7458 38.2788 28.3675 38.8972 27.7492 39.4796C27.0948 40.0979 26.5064 40.4942 25.9781 40.6563C25.4498 40.8184 24.9275 40.8244 24.4112 40.6743C23.8889 40.5182 23.3786 40.206 22.8683 39.7377L24.5313 37.6665C24.8074 37.9487 25.0296 38.1348 25.2097 38.2308C25.3898 38.3269 25.5699 38.3629 25.768 38.3389C25.9001 38.3209 26.0322 38.2488 26.1762 38.1108C26.3984 37.9006 26.4824 37.6605 26.4284 37.3963C26.3804 37.1322 26.1642 36.802 25.792 36.4057L22.0098 32.4134V32.4194Z" fill="#D0A15E"/>
<path d="M26.3672 28.2889L31.7344 23.2039L33.0432 24.5847L29.6872 27.7666L30.6597 28.7992L33.7756 25.8454L35.0303 27.1662L31.9145 30.12L33.1272 31.3987L36.5793 28.1208L37.9721 29.5917L32.5088 34.7667L26.3672 28.2889Z" fill="#D0A15E"/>
<path d="M51.9316 14.3065L49.6623 16.4618L50.3587 17.8306L48.3175 19.7697L44.6133 10.9865L46.7986 8.91528L55.3717 13.0818L53.2764 15.0689L51.9376 14.3065H51.9316ZM50.1906 13.2979L47.2669 11.6469L48.7678 14.6487L50.1906 13.2979Z" fill="#D0A15E"/>
<path d="M34.2324 20.7483L36.2316 18.8512L39.0713 21.817L38.6871 16.5098L40.9924 14.3425L41.3166 19.8418L47.2362 20.7183L44.7747 23.0537L39.6116 22.3933L42.3733 25.3291L40.3741 27.2262L34.2324 20.7483Z" fill="#D0A15E"/>
<path d="M12.5244 12.1152H9.97287V8.77722H8.09375V17.5544H9.97287V14.2165H12.5244V17.5544H14.3975V8.77722H12.5244V12.1152Z" fill="#D0A15E"/>
<path d="M20.6281 13.8082L18.2447 8.77722H15.9453V17.5544H17.6623V11.4368L20.538 17.5544H22.3451V8.77722H20.6281V13.8082Z" fill="#D0A15E"/>
<path d="M27.6356 12.8536L30.2952 8.77722H28.1279L25.7385 12.6735V8.77722H23.8594V17.5544H25.7385V14.5887L26.1047 13.9883L28.1399 17.5544H30.4093L27.6356 12.8536Z" fill="#D0A15E"/>
<path d="M43.8989 49.9497C42.41 49.9497 41.1973 48.737 41.1973 47.2481C41.1973 45.7592 42.41 44.5465 43.8989 44.5465C45.3878 44.5465 46.6005 45.7592 46.6005 47.2481C46.6005 48.737 45.3878 49.9497 43.8989 49.9497Z" fill="#020202"/>
<path d="M42.2344 49.3733V55.6831C42.4265 55.7731 42.6246 55.8512 42.8227 55.9292V49.7215C42.6126 49.6315 42.4145 49.5114 42.2344 49.3673" fill="#D0A15E"/>
<path d="M43.1484 56.0554C43.3406 56.1214 43.5387 56.1814 43.7368 56.2355V49.9437C43.5327 49.9317 43.3345 49.8957 43.1484 49.8417V56.0554Z" fill="#D0A15E"/>
<path d="M44.9727 55.9292C45.1708 55.8512 45.3689 55.7671 45.561 55.6771V49.3673C45.3809 49.5054 45.1828 49.6255 44.9727 49.7215V55.9292Z" fill="#D0A15E"/>
<path d="M44.0605 56.2355C44.2587 56.1814 44.4568 56.1214 44.6489 56.0554V49.8417C44.4628 49.8957 44.2647 49.9317 44.0605 49.9437V56.2355Z" fill="#D0A15E"/>
<path d="M49.8299 46.2695C49.8299 43.2857 47.1102 40.7162 44.8949 40.0678C44.5467 39.9658 44.2105 39.9117 43.8983 39.9117C43.5861 39.9117 43.2379 39.9718 42.8837 40.0738C40.6744 40.7282 37.9668 43.2978 37.9668 46.2695C37.9668 48.6469 39.2275 50.8442 41.1967 51.9309V50.7362C40.7164 50.1298 40.4463 49.3794 40.4463 48.5929C40.4463 47.2661 41.1967 46.1134 42.2954 45.5371C42.7757 45.2849 43.316 45.1409 43.8983 45.1409C44.4807 45.1409 45.009 45.2849 45.4833 45.5311C46.5939 46.1074 47.3564 47.2601 47.3564 48.5989C47.3564 49.3854 47.0862 50.1418 46.6059 50.7422V51.9369C48.5751 50.8563 49.8359 48.6589 49.8359 46.2815" fill="#D0A15E"/>
<path d="M41.7436 48.869L41.1973 49.9557V55.1127C41.3894 55.2328 41.5815 55.3469 41.7796 55.4549V50.0997L42.1698 49.3253C42.0077 49.1932 41.8697 49.0371 41.7436 48.869Z" fill="#D0A15E"/>
<path d="M46.0534 48.869C45.9273 49.0371 45.7832 49.1872 45.6211 49.3253L46.0113 50.0997V55.4549C46.2094 55.3469 46.4076 55.2328 46.5997 55.1127V49.9557L46.0534 48.869Z" fill="#D0A15E"/>
<path d="M34.9049 40.9263C34.6107 45.333 36.4718 52.147 41.1966 55.1128V51.9249C39.2335 50.8442 37.9667 48.6469 37.9667 46.2695C37.9667 43.2977 40.6683 40.7282 42.8836 40.0738V38.5249L34.9169 40.7162L34.9049 40.9263Z" fill="#55B4E6"/>
<path d="M52.8752 40.9263L52.8632 40.7162L44.8965 38.5249V40.0678C47.1118 40.7162 49.8314 43.2917 49.8314 46.2695C49.8314 48.6469 48.5707 50.8442 46.6015 51.9249V55.1008C51.3143 52.129 53.1694 45.3269 52.8812 40.9263" fill="#55B4E6"/>
</svg>
