<svg width="109" height="132" viewBox="0 0 109 132" fill="none" xmlns="http://www.w3.org/2000/svg">
<path d="M107.65 20.6683L108.448 19.648L91.379 0.453987L90.3162 0.964128C90.1675 1.03852 75.1608 8.1061 55.6054 8.09548C55.159 8.09548 54.702 8.09548 54.2025 8.09548C53.7455 8.09548 53.2991 8.09548 52.8527 8.09548C33.3398 8.09548 18.2907 1.01727 18.1419 0.953501L17.0897 0.443359L0 19.6268L0.797096 20.6577C0.860863 20.7427 7.84342 29.8615 8.95935 44.443C9.51201 51.6488 7.3014 58.9608 5.15455 66.0284C2.71012 74.095 0.191303 82.4379 1.95554 90.4408C4.97388 104.108 29.2375 113.716 39.5891 117.818C40.9601 118.36 42.0335 118.785 42.7031 119.083C47.7938 121.347 50.2914 124.312 51.5136 126.501C52.4383 128.159 54.1919 131.443 54.1919 131.443C54.1919 131.443 55.9136 128.234 56.8807 126.501C58.103 124.312 60.6218 121.347 65.6913 119.094C66.3502 118.796 67.4343 118.371 68.8053 117.829C79.1675 113.727 103.42 104.14 106.449 90.4726C108.224 82.4698 105.695 74.1269 103.261 66.0603C101.125 58.9927 98.9142 51.6807 99.4669 44.4749C100.583 29.9572 107.576 20.7852 107.64 20.6896M8.15163 66.9318C10.3729 59.5879 12.6791 51.9889 12.0733 44.1986C11.0956 31.4557 5.98353 22.7302 4.01736 19.8075L17.8762 4.24816C21.7448 5.91675 35.4123 11.2201 52.8527 11.2201C53.3204 11.2201 53.788 11.2201 54.2025 11.2095C67.6362 11.4327 78.9762 8.43557 85.5656 6.18245L4.5275 83.3519C4.78257 78.0911 6.4299 72.6177 8.15163 66.9318ZM5.01639 89.7606C4.85697 89.0272 4.74006 88.2833 4.65504 87.5393L91.2834 5.04526L104.164 19.5205L16.4839 103.014C10.7555 99.1663 6.10044 94.6707 5.01639 89.7606ZM100.285 66.9424C102.708 74.9771 105.004 82.5761 103.41 89.7712C100.742 101.823 76.7125 111.325 67.6681 114.906C66.2652 115.459 65.1599 115.895 64.4372 116.224C58.6875 118.785 55.7223 122.229 54.2131 124.918C52.704 122.229 49.7388 118.785 43.989 116.224C43.2663 115.905 42.161 115.459 40.7582 114.906C35.9756 113.015 26.995 109.454 19.2047 104.746L100.423 27.3852C98.6273 31.647 96.8949 37.3329 96.3635 44.2092C95.7577 51.9995 98.064 59.5985 100.285 66.9424Z" fill="#D9F1FD"/>
<path d="M21.9788 95.011L11.1064 83.5434L17.0156 77.9425C18.1103 76.901 19.0349 76.1995 19.7895 75.8488C20.5441 75.4874 21.3412 75.3918 22.1808 75.5618C23.0204 75.7319 24.0725 76.4759 24.7633 77.2092C25.3691 77.8469 26.0068 78.7715 26.1662 79.4942C26.3363 80.2169 26.315 80.9396 26.1131 81.6729C25.9856 82.1405 25.7092 82.6826 25.2947 83.3096L33.2444 84.3193L29.2377 88.1134L21.6494 87.5289L25.5179 91.6419L21.9576 95.011H21.9788ZM19.6088 85.3608L21.0967 83.9473C21.2561 83.7879 21.5218 83.4478 21.8938 82.8951C22.0851 82.6294 22.1595 82.3318 22.1276 81.9918C22.0957 81.6623 21.7025 81.1096 21.4687 80.8652C21.118 80.4932 20.4378 80.0256 20.0127 80.0575C19.5875 80.0787 19.0561 80.3976 18.4078 81.014L16.8455 82.4913L19.5982 85.3608H19.6088Z" fill="#D9F1FD"/>
<path d="M29.2754 66.3069L25.7256 69.6685L36.5849 81.1358L40.1346 77.7742L29.2754 66.3069Z" fill="#D9F1FD"/>
<path d="M38.2715 57.8344L41.8212 54.4653L47.7197 60.6933C48.9632 62.0005 49.7815 63.1058 50.2067 64.0092C50.6212 64.9126 50.7062 65.9329 50.4511 67.0701C50.196 68.2073 49.5265 69.3019 48.4318 70.3328C47.2734 71.4275 46.2318 72.129 45.2966 72.4159C44.3613 72.7029 43.4367 72.7135 42.5227 72.4478C41.598 72.1715 40.6947 71.6188 39.7913 70.7899L42.7352 67.1232C43.2241 67.6227 43.6173 67.9522 43.9362 68.1222C44.255 68.2923 44.5739 68.356 44.9246 68.3135C45.1584 68.2817 45.3922 68.1541 45.6473 67.9097C46.0405 67.5377 46.1893 67.1126 46.0936 66.645C46.0086 66.1773 45.626 65.5928 44.9671 64.8913L38.2715 57.8238V57.8344Z" fill="#D9F1FD"/>
<path d="M45.9873 50.5221L55.4887 41.5203L57.8056 43.9647L51.8646 49.5975L53.5863 51.4255L59.1022 46.1966L61.3234 48.5347L55.8075 53.7636L57.9544 56.0274L64.0654 50.2245L66.5311 52.8284L56.8597 61.9897L45.9873 50.5221Z" fill="#D9F1FD"/>
<path d="M91.2406 25.77L87.2233 29.5854L88.4561 32.0086L84.8426 35.4414L78.2852 19.8927L82.1537 16.2261L97.3304 23.6019L93.6213 27.1197L91.2512 25.77H91.2406ZM88.1585 23.9845L82.9827 21.0618L85.6397 26.3758L88.1585 23.9845Z" fill="#D9F1FD"/>
<path d="M59.9102 37.1733L63.4493 33.8148L68.4763 39.065L67.7961 29.6699L71.8772 25.8333L72.4511 35.5684L82.9303 37.1201L78.5728 41.2544L69.4328 40.0853L74.3216 45.2824L70.7825 48.6408L59.9102 37.1733Z" fill="#D9F1FD"/>
<path d="M21.4792 21.8906H16.9623V15.9814H13.6357V31.5195H16.9623V25.6104H21.4792V31.5195H24.7951V15.9814H21.4792V21.8906Z" fill="#D9F1FD"/>
<path d="M35.8269 24.8877L31.6076 15.9814H27.5371V31.5195H30.5767V20.6896L35.6675 31.5195H38.8665V15.9814H35.8269V24.8877Z" fill="#D9F1FD"/>
<path d="M48.2299 23.1978L52.9381 15.9814H49.1014L44.8715 22.879V15.9814H41.5449V31.5195H44.8715V26.2693L45.5198 25.2065L49.1226 31.5195H53.14L48.2299 23.1978Z" fill="#D9F1FD"/>
<path d="M73.4536 81.6633C72.8489 82.4004 72.4863 83.3372 72.4863 84.3552C72.4863 86.7221 74.4465 88.65 76.853 88.65C79.2595 88.65 81.2197 86.7221 81.2197 84.3552C81.2197 83.3372 80.951 82.4004 80.3463 81.6633" stroke="#D9F1FD" stroke-linecap="round"/>
<path d="M87.3223 82.3529C87.3223 77.0708 82.7062 73.0443 78.7845 71.8964C78.1681 71.7158 77.5729 71.6201 77.0203 71.6201C76.4676 71.6201 75.8512 71.7264 75.2241 71.9071C71.313 73.0655 66.8096 77.0921 66.8096 82.3529C66.8096 86.5616 68.7517 89.7831 72.2377 91.7068V90.2601C71.3874 89.1867 70.9092 87.8582 70.9092 86.4659C70.9092 84.1172 72.2377 82.0766 74.1826 81.0563C75.0328 80.6099 75.9893 80.3549 77.0203 80.3549C78.0512 80.3549 78.9864 80.6099 79.826 81.0457C81.7922 82.066 83.142 84.1065 83.142 86.4766C83.142 87.8688 82.6637 89.2079 81.8135 90.2707V91.7174C85.2994 89.8044 87.3329 86.5828 87.3329 82.3742" stroke="#D9F1FD"/>
<path d="M73.877 87.796V98.966C74.2309 99.1254 74.596 99.2636 74.9611 99.4017V88.4124C74.5739 88.253 74.2088 88.0405 73.877 87.7854" fill="#D9F1FD"/>
<path d="M75.5586 99.6249C75.9126 99.7418 76.2776 99.8481 76.6427 99.9438V88.8057C76.2666 88.7844 75.9015 88.7207 75.5586 88.625V99.6249Z" fill="#D9F1FD"/>
<path d="M78.9209 99.4017C79.286 99.2636 79.651 99.1148 80.005 98.9554V87.7854C79.6731 88.0298 79.3081 88.2424 78.9209 88.4124V99.4017Z" fill="#D9F1FD"/>
<path d="M77.2393 99.9438C77.6043 99.8481 77.9694 99.7418 78.3234 99.6249V88.625C77.9804 88.7207 77.6154 88.7844 77.2393 88.8057V99.9438Z" fill="#D9F1FD"/>
<path d="M72.9695 86.9033L71.9629 88.827V97.9564C72.3169 98.1689 72.6709 98.3709 73.0359 98.5622V89.082L73.755 87.711C73.4563 87.4772 73.2019 87.2009 72.9695 86.9033Z" fill="#D9F1FD"/>
<path d="M80.9127 86.9031C80.6804 87.2007 80.4149 87.4664 80.1162 87.7108L80.8353 89.0818V98.5619C81.2003 98.3706 81.5654 98.1687 81.9194 97.9561V88.8267L80.9127 86.9031Z" fill="#D9F1FD"/>
<path d="M71.9721 98.4311L72.7379 98.9118V98.0076V92.3641V92.0686L72.479 91.9261C69.1726 90.1061 67.02 86.3898 67.02 82.3526C67.02 79.8751 68.148 77.5346 69.7789 75.6582C71.4118 73.7796 73.5095 72.4125 75.366 71.8641L75.7243 71.7583V71.3846V68.6426V67.9865L75.0917 68.1605L60.9884 72.0397L60.6423 72.1349L60.6219 72.4933L60.6007 72.8629C60.3357 76.8396 61.042 81.8774 62.8709 86.5881C64.6996 91.2987 67.6703 95.7309 71.9721 98.4311Z" stroke="#D9F1FD"/>
<mask id="path-20-outside-1_365_5770" maskUnits="userSpaceOnUse" x="77.7852" y="66.6426" width="17" height="34" fill="black">
<rect fill="white" x="77.7852" y="66.6426" width="17" height="34"/>
<path d="M92.9097 72.8938L92.8884 72.5218L78.7852 68.6426V71.374C82.7069 72.5218 87.5213 77.0812 87.5213 82.3526C87.5213 86.5613 85.2895 90.4511 81.8035 92.3641V97.9863C90.1464 92.7255 93.4305 80.684 92.9203 72.8938"/>
</mask>
<path d="M92.8884 72.5218L93.8868 72.4647L93.8459 71.748L93.1536 71.5576L92.8884 72.5218ZM78.7852 68.6426L79.0504 67.6784L77.7852 67.3304V68.6426H78.7852ZM78.7852 71.374H77.7852V72.1232L78.5043 72.3337L78.7852 71.374ZM81.8035 92.3641L81.3224 91.4875L80.8035 91.7722V92.3641H81.8035ZM81.8035 97.9863H80.8035V99.7991L82.3369 98.8322L81.8035 97.9863ZM93.9081 72.8367L93.8868 72.4647L91.8901 72.5788L91.9113 72.9508L93.9081 72.8367ZM93.1536 71.5576L79.0504 67.6784L78.5199 69.6068L92.6232 73.486L93.1536 71.5576ZM77.7852 68.6426V71.374H79.7852V68.6426H77.7852ZM78.5043 72.3337C80.2553 72.8462 82.2823 74.1534 83.8702 75.9742C85.4543 77.7905 86.5213 80.024 86.5213 82.3526H88.5213C88.5213 79.4098 87.1812 76.7278 85.3775 74.6597C83.5778 72.5959 81.2367 71.0495 79.0661 70.4142L78.5043 72.3337ZM86.5213 82.3526C86.5213 86.2197 84.4683 89.7611 81.3224 91.4875L82.2846 93.2408C86.1106 91.1411 88.5213 86.9028 88.5213 82.3526H86.5213ZM80.8035 92.3641V97.9863H82.8035V92.3641H80.8035ZM82.3369 98.8322C86.7467 96.0515 89.7649 91.5187 91.6142 86.7502C93.4643 81.9794 94.1832 76.8761 93.9182 72.8284L91.9225 72.9591C92.1675 76.7017 91.4995 81.5143 89.7495 86.027C87.9985 90.542 85.2033 94.6603 81.2701 97.1405L82.3369 98.8322Z" fill="#D9F1FD" mask="url(#path-20-outside-1_365_5770)"/>
</svg>
