<svg width="48" height="58" viewBox="0 0 48 58" fill="none" xmlns="http://www.w3.org/2000/svg">
<path d="M23.9937 4.76474C23.8103 4.76474 23.6033 4.76944 23.3963 4.76944C15.677 4.76944 9.62758 2.42213 7.91532 1.68359L1.78125 8.5703C2.6515 9.86392 4.91414 13.7306 5.34691 19.3661C5.61034 22.8141 4.59426 26.1775 3.61112 29.428C2.84907 31.9447 2.11994 34.3672 2.00704 36.6957L37.8753 2.53973C34.9635 3.53698 29.9396 4.85882 23.9937 4.76474Z" fill="white"/>
<path d="M40.4051 2.03711L2.0625 38.5498C2.10013 38.8791 2.15188 39.2084 2.22244 39.533C2.70225 41.711 4.75791 43.7008 7.29809 45.3989L46.1064 8.44401L40.4051 2.03711Z" fill="#55B4E6"/>
<path d="M44.453 11.9238L8.5 46.1598C11.9481 48.2484 15.923 49.8196 18.0398 50.6616C18.6607 50.9062 19.1499 51.0991 19.4698 51.2449C22.0147 52.3786 23.3271 53.9027 23.9951 55.0928C24.6631 53.9027 25.9755 52.3786 28.5204 51.2449C28.8403 51.1038 29.3295 50.9109 29.9504 50.6616C33.9535 49.0763 44.5894 44.8709 45.7701 39.5365C46.4757 36.3472 45.4596 32.9885 44.3871 29.4323C43.404 26.1818 42.3879 22.8184 42.6513 19.3703C42.8865 16.3268 43.6533 13.8054 44.4483 11.9238" fill="white"/>
<path d="M47.6472 8.95178L48 8.5002L40.4453 0.00470404L39.9749 0.230498C39.9091 0.263426 33.267 3.39161 24.6115 3.38691C24.414 3.38691 24.2117 3.38691 23.9906 3.38691C23.7883 3.38691 23.5907 3.38691 23.3932 3.38691C14.7566 3.38691 8.09565 0.254018 8.02979 0.225794L7.56409 0L0 8.49079L0.352803 8.94708C0.381027 8.98471 3.47158 13.0208 3.9655 19.4747C4.21011 22.6641 3.23167 25.9004 2.28146 29.0286C1.19953 32.599 0.0846727 36.2917 0.865543 39.8338C2.20149 45.8832 12.9408 50.1356 17.5225 51.9514C18.1294 52.1913 18.6045 52.3795 18.9008 52.5112C21.1541 53.5131 22.2595 54.8256 22.8005 55.7946C23.2097 56.5284 23.9859 57.982 23.9859 57.982C23.9859 57.982 24.7479 56.5613 25.176 55.7946C25.717 54.8256 26.8318 53.5131 29.0757 52.5159C29.3673 52.3842 29.8471 52.196 30.4539 51.9561C35.0404 50.1403 45.775 45.8973 47.1156 39.8479C47.9012 36.3058 46.7817 32.6131 45.7044 29.0427C44.7589 25.9145 43.7805 22.6782 44.0251 19.4888C44.519 13.0631 47.6143 9.00353 47.6425 8.96119M3.608 29.4285C4.59114 26.178 5.61192 22.8146 5.34379 19.3665C4.91102 13.7264 2.64837 9.86437 1.77813 8.57076L7.91219 1.68405C9.62446 2.42258 15.6739 4.76989 23.3932 4.76989C23.6002 4.76989 23.8071 4.76989 23.9906 4.76519C29.9365 4.86397 34.9557 3.53744 37.8722 2.54018L2.00392 36.6962C2.11682 34.3677 2.84594 31.9451 3.608 29.4285ZM2.22031 39.5327C2.14975 39.2082 2.098 38.8789 2.06037 38.5496L40.403 2.03685L46.1043 8.44375L7.29596 45.3987C4.76049 43.6958 2.70012 41.706 2.22031 39.5327ZM44.3873 29.4332C45.4598 32.9894 46.4759 36.3528 45.7703 39.5374C44.5896 44.8718 33.9537 49.0772 29.9506 50.6625C29.3297 50.9071 28.8405 51.1 28.5206 51.2458C25.9757 52.3795 24.6633 53.9036 23.9953 55.0937C23.3273 53.9036 22.0149 52.3795 19.47 51.2458C19.1501 51.1047 18.6609 50.9071 18.04 50.6625C15.9232 49.8252 11.9483 48.2493 8.5002 46.1654L44.4485 11.9247C43.6535 13.8111 42.8867 16.3277 42.6515 19.3712C42.3834 22.8193 43.4042 26.1827 44.3873 29.4332Z" fill="#D0A15E"/>
<path d="M9.72629 41.8574L4.91406 36.7818L7.52951 34.3027C8.01402 33.8417 8.42328 33.5313 8.75726 33.376C9.09125 33.2161 9.44405 33.1738 9.81567 33.249C10.1873 33.3243 10.653 33.6536 10.9588 33.9781C11.2269 34.2604 11.5091 34.6696 11.5797 34.9895C11.6549 35.3094 11.6455 35.6293 11.5562 35.9538C11.4997 36.1608 11.3774 36.4007 11.194 36.6783L14.7126 37.1251L12.9392 38.8045L9.58047 38.5458L11.2927 40.3662L9.71688 41.8574H9.72629ZM8.67729 37.5861L9.33586 36.9605C9.40642 36.8899 9.52402 36.7394 9.68866 36.4948C9.77333 36.3772 9.80626 36.2455 9.79215 36.095C9.77804 35.9491 9.60399 35.7045 9.5005 35.5963C9.34527 35.4317 9.04421 35.2247 8.85605 35.2388C8.66788 35.2482 8.43268 35.3894 8.14574 35.6622L7.45424 36.316L8.67259 37.5861H8.67729Z" fill="#D0A15E"/>
<path d="M12.954 29.1528L11.3828 30.6406L16.1892 35.7162L17.7604 34.2283L12.954 29.1528Z" fill="#D0A15E"/>
<path d="M16.9375 25.4013L18.5086 23.9102L21.1194 26.6667C21.6698 27.2453 22.032 27.7345 22.2201 28.1344C22.4036 28.5342 22.4412 28.9858 22.3283 29.4891C22.2154 29.9925 21.9191 30.477 21.4346 30.9333C20.9218 31.4178 20.4608 31.7283 20.0469 31.8553C19.6329 31.9823 19.2237 31.987 18.8191 31.8694C18.4099 31.7471 18.01 31.5025 17.6102 31.1356L18.9132 29.5127C19.1296 29.7338 19.3036 29.8796 19.4448 29.9548C19.5859 30.0301 19.727 30.0583 19.8822 30.0395C19.9857 30.0254 20.0892 29.969 20.2021 29.8608C20.3762 29.6961 20.442 29.508 20.3997 29.301C20.362 29.094 20.1927 28.8353 19.901 28.5248L16.9375 25.3966V25.4013Z" fill="#D0A15E"/>
<path d="M20.3516 22.166L24.557 18.1816L25.5825 19.2636L22.9529 21.7567L23.7149 22.5658L26.1563 20.2514L27.1395 21.2863L24.6981 23.6007L25.6483 24.6027L28.3531 22.0342L29.4445 23.1867L25.1638 27.2416L20.3516 22.166Z" fill="#D0A15E"/>
<path d="M40.3827 11.2106L38.6045 12.8993L39.1502 13.9718L37.5508 15.4912L34.6484 8.60922L36.3607 6.98633L43.0781 10.2509L41.4364 11.808L40.3874 11.2106H40.3827ZM39.0185 10.4203L36.7276 9.12666L37.9036 11.4787L39.0185 10.4203Z" fill="#D0A15E"/>
<path d="M26.5156 16.2575L28.0821 14.771L30.3071 17.0948L30.006 12.9364L31.8124 11.2383L32.0664 15.5472L36.7046 16.234L34.7759 18.0638L30.7304 17.5464L32.8943 19.8467L31.3279 21.3331L26.5156 16.2575Z" fill="#D0A15E"/>
<path d="M9.51064 9.4924H7.51143V6.87695H6.03906V13.7543H7.51143V11.1388H9.51064V13.7543H10.9783V6.87695H9.51064V9.4924Z" fill="#D0A15E"/>
<path d="M15.8566 10.8189L13.9891 6.87695H12.1875V13.7543H13.5329V8.96084L15.7861 13.7543H17.202V6.87695H15.8566V10.8189Z" fill="#D0A15E"/>
<path d="M21.3495 10.071L23.4334 6.87695H21.7352L19.863 9.92987V6.87695H18.3906V13.7543H19.863V11.4305L20.1499 10.9601L21.7446 13.7543H23.5227L21.3495 10.071Z" fill="#D0A15E"/>
<path d="M34.0934 39.1379C32.9268 39.1379 31.9766 38.1877 31.9766 37.0211C31.9766 35.8545 32.9268 34.9043 34.0934 34.9043C35.26 34.9043 36.2102 35.8545 36.2102 37.0211C36.2102 38.1877 35.26 39.1379 34.0934 39.1379Z" fill="#020202"/>
<path d="M32.7891 38.6863V43.6303C32.9396 43.7008 33.0948 43.762 33.2501 43.8232V38.9592C33.0854 38.8886 32.9302 38.7945 32.7891 38.6816" fill="#D0A15E"/>
<path d="M33.5 43.9214C33.6505 43.9732 33.8058 44.0202 33.961 44.0625V39.1327C33.8011 39.1233 33.6458 39.0951 33.5 39.0527V43.9214Z" fill="#D0A15E"/>
<path d="M34.9297 43.8232C35.0849 43.762 35.2402 43.6961 35.3907 43.6256V38.6816C35.2496 38.7898 35.0943 38.8839 34.9297 38.9592V43.8232Z" fill="#D0A15E"/>
<path d="M34.2188 44.0625C34.374 44.0202 34.5292 43.9732 34.6797 43.9214V39.0527C34.5339 39.0951 34.3787 39.1233 34.2188 39.1327V44.0625Z" fill="#D0A15E"/>
<path d="M38.7405 36.2531C38.7405 33.9152 36.6096 31.9018 34.8738 31.3938C34.6009 31.3138 34.3375 31.2715 34.0929 31.2715C33.8483 31.2715 33.5755 31.3185 33.2979 31.3985C31.5668 31.9112 29.4453 33.9246 29.4453 36.2531C29.4453 38.1159 30.4332 39.8375 31.9761 40.689V39.7529C31.5998 39.2778 31.3881 38.6898 31.3881 38.0735C31.3881 37.0339 31.9761 36.1308 32.8369 35.6792C33.2132 35.4816 33.6366 35.3687 34.0929 35.3687C34.5492 35.3687 34.9631 35.4816 35.3348 35.6745C36.205 36.126 36.8024 37.0292 36.8024 38.0782C36.8024 38.6945 36.5907 39.2872 36.2144 39.7576V40.6937C37.7573 39.8469 38.7452 38.1253 38.7452 36.2625" fill="#D0A15E"/>
<path d="M32.4046 38.291L31.9766 39.1424V43.1832C32.1271 43.2773 32.2776 43.3667 32.4329 43.4513V39.2553L32.7386 38.6485C32.6116 38.545 32.5034 38.4227 32.4046 38.291Z" fill="#D0A15E"/>
<path d="M35.7762 38.291C35.6774 38.4227 35.5645 38.5403 35.4375 38.6485L35.7433 39.2553V43.4513C35.8985 43.3667 36.0537 43.2773 36.2043 43.1832V39.1424L35.7762 38.291Z" fill="#D0A15E"/>
<path d="M27.0469 32.0672C26.8164 35.5199 28.2746 40.859 31.9767 43.1828V40.685C30.4385 39.8382 29.4459 38.1166 29.4459 36.2538C29.4459 33.9253 31.5627 31.9119 33.2985 31.3992V30.1855L27.0563 31.9025L27.0469 32.0672Z" fill="#55B4E6"/>
<path d="M41.1189 32.0672L41.1094 31.9025L34.8672 30.1855V31.3945C36.603 31.9025 38.7339 33.9206 38.7339 36.2538C38.7339 38.1166 37.7461 39.8382 36.2031 40.685V43.1734C39.8958 40.8449 41.3494 35.5152 41.1236 32.0672" fill="#55B4E6"/>
</svg>
