<svg width="150" height="41" viewBox="0 0 150 41" fill="none" xmlns="http://www.w3.org/2000/svg">
<mask id="mask0_439_9257" style="mask-type:luminance" maskUnits="userSpaceOnUse" x="0" y="0" width="150" height="41">
<path d="M150 0H0V41H150V0Z" fill="white"/>
</mask>
<g mask="url(#mask0_439_9257)">
<path d="M0 5.93213H2.18292L5.86642 18.2061L2.18292 29.0586H0L3.6835 18.2061L0 5.93213Z" fill="#D1A364"/>
<path d="M45.0058 6.04104L45.2458 5.73439L40.1051 0.00292969L39.7841 0.154822C36.4773 1.55227 32.9211 2.27729 29.3263 2.2869H28.9042H28.4965C24.9065 2.27271 21.3554 1.54988 18.0503 0.160559L17.7323 0.00866674L12.5858 5.74013L12.8257 6.04678C12.846 6.07257 14.948 8.79501 15.2862 13.1481C15.4539 15.3002 14.786 17.4839 14.1297 19.596C13.3954 22.0032 12.632 24.4935 13.167 26.8835C14.0748 30.9643 21.384 33.8329 24.5037 35.0594C24.9171 35.2199 25.241 35.346 25.4405 35.4349C26.9728 36.114 27.7275 36.9967 28.0976 37.6501C28.3867 38.1458 28.9042 39.1259 28.9042 39.1259C28.9042 39.1259 29.4218 38.1659 29.7138 37.6501C30.0839 36.9967 30.8385 36.1111 32.368 35.4377C32.5675 35.3489 32.8942 35.2199 33.3048 35.0594C36.4273 33.8358 43.7336 30.97 44.6473 26.8892C45.1793 24.5021 44.4218 22.0175 43.6845 19.6017C43.0397 17.4897 42.3747 15.3031 42.5424 13.1538C42.7137 10.6121 43.5639 8.16123 45.0058 6.05252V6.04104ZM15.0289 19.8653C15.6997 17.673 16.3936 15.4034 16.2115 13.0764C16.0315 10.4851 15.1974 7.98004 13.7857 5.79169L17.9578 1.14635C21.3012 2.51169 24.8806 3.2193 28.4965 3.22975H28.9042C32.1168 3.26316 35.3119 2.7554 38.3529 1.7281L13.9389 24.7714C14.0141 23.201 14.5172 21.5676 15.0289 19.8682V19.8653ZM14.0835 26.6857C14.0363 26.4661 14.0006 26.2442 13.9765 26.0209L40.0733 1.37563L43.9534 5.69717L17.5386 30.629C15.8038 29.4827 14.4131 28.1387 14.069 26.6714L14.0835 26.6857ZM42.7708 19.8596C43.5023 22.2582 44.1934 24.525 43.7134 26.6772C42.9154 30.2737 35.6872 33.1164 32.9578 34.1825C32.5357 34.3487 32.2032 34.4691 31.9863 34.5752C30.2515 35.3403 29.361 36.3691 28.9042 37.1543C28.4474 36.3519 27.5569 35.3231 25.8221 34.5579C25.6052 34.4634 25.2728 34.3315 24.8507 34.1653C23.405 33.5922 20.7045 32.5376 18.3568 31.1305L42.8286 8.03269C42.1508 9.63105 41.7378 11.3274 41.6057 13.0563C41.4235 15.3833 42.1174 17.6415 42.7853 19.8452" fill="#D1A364"/>
<path d="M19.2063 28.2447L15.9189 24.8059L17.6971 23.1351C17.9447 22.8871 18.2271 22.6758 18.5355 22.5076C18.7596 22.4014 19.0129 22.3722 19.2555 22.4244C19.5546 22.5153 19.8233 22.6846 20.0333 22.9145C20.2254 23.1068 20.3708 23.3401 20.4583 23.5965C20.5074 23.8124 20.5015 24.037 20.441 24.2499C20.3847 24.4238 20.3018 24.5881 20.1952 24.7371L22.5921 25.038L21.3864 26.1843L19.0994 26.0066L20.2559 27.2332L19.2063 28.2447ZM18.4951 25.3618L18.9461 24.9405C19.034 24.8433 19.1133 24.7388 19.1832 24.6282C19.2397 24.5502 19.2655 24.4544 19.2555 24.3588C19.2183 24.2315 19.1497 24.1152 19.056 24.0206C18.9429 23.8929 18.7886 23.8078 18.6194 23.78C18.4308 23.8196 18.2609 23.9204 18.1366 24.0665L17.6653 24.5078L18.4951 25.3618Z" fill="#D1A364"/>
<path d="M21.3812 19.6898L20.3105 20.6947L23.5828 24.1197L24.6534 23.1148L21.3812 19.6898Z" fill="#D1A364"/>
<path d="M24.1046 17.1371L25.1744 16.1312L26.9526 17.9939C27.2531 18.2824 27.5058 18.6161 27.7014 18.9826C27.8269 19.271 27.8532 19.5922 27.7766 19.8968C27.6756 20.2754 27.4632 20.6155 27.1665 20.874C26.9011 21.1467 26.5782 21.358 26.2211 21.493C25.9488 21.5761 25.6577 21.5761 25.3855 21.493C25.0769 21.3921 24.7953 21.2236 24.5615 21.0001L25.452 19.9025C25.5566 20.0162 25.6785 20.1129 25.8134 20.1891C25.9013 20.2381 26.0022 20.2591 26.1025 20.2493C26.1858 20.2327 26.2616 20.1906 26.3194 20.1289C26.3743 20.0838 26.4159 20.0249 26.4398 19.9583C26.4637 19.8918 26.469 19.82 26.4553 19.7507C26.3894 19.5495 26.2719 19.3687 26.1141 19.2262L24.1046 17.1371Z" fill="#D1A364"/>
<path d="M26.4297 14.9534L29.2892 12.2654L29.9888 12.9961L28.1991 14.6783L28.7195 15.2228L30.3792 13.6638L31.0471 14.3602L29.3845 15.9221L30.0322 16.5984L31.874 14.8646L32.617 15.6412L29.7026 18.378L26.4297 14.9534Z" fill="#D1A364"/>
<path d="M40.0643 7.56272L38.8528 8.709L39.2229 9.43117L38.1329 10.457L36.1582 5.81171L37.3147 4.71985L41.8858 6.92365L40.7698 7.97251L40.0643 7.56272ZM39.1333 7.02965L37.5749 6.16993L38.3758 7.75758L39.1333 7.02965Z" fill="#D1A364"/>
<path d="M30.6221 10.9672L31.689 9.96709L33.2011 11.5318L32.9987 8.72911L34.2275 7.58276L34.401 10.4887L37.5583 10.9529L36.2428 12.188L33.4903 11.8384L34.9648 13.3916L33.8979 14.3918L30.6221 10.9672Z" fill="#D1A364"/>
<path d="M19.0449 6.40494H17.6831V4.63965H16.6798V9.27927H17.6831V7.51396H19.0449V9.27927H20.0452V4.63965H19.0449V6.40494Z" fill="#D1A364"/>
<path d="M23.3674 7.29904L22.0953 4.63965H20.8694V9.28214H21.783V6.04672L23.3183 9.28214H24.2811V4.63965H23.3674V7.29904Z" fill="#D1A364"/>
<path d="M27.1031 6.79467L28.5228 4.63965H27.3634L26.0913 6.70011V4.63965H25.0908V9.28214H26.0913V7.7117L26.285 7.3965L27.3721 9.28214H28.5806L27.1031 6.79467Z" fill="#D1A364"/>
<path d="M40.5676 21.7969V21.688L36.3232 20.5417V21.3584C36.151 21.3039 35.9719 21.2739 35.7912 21.2696C35.6077 21.2743 35.4258 21.3042 35.2505 21.3584V20.5388L31.0061 21.6852V21.794C30.85 24.1238 31.8446 27.7174 34.36 29.2879C34.4641 29.3509 34.5653 29.4083 34.6723 29.4656V26.637L34.8805 26.2216C34.8918 26.2293 34.9024 26.2379 34.9123 26.2474V29.5859C35.0134 29.6318 35.1176 29.6776 35.2245 29.7177V26.4394C35.2766 26.4622 35.3373 26.4766 35.3951 26.4966V29.7837C35.4992 29.8152 35.6004 29.8496 35.7074 29.8753V26.5483C35.7392 26.5483 35.7652 26.5483 35.7912 26.5483C35.8172 26.5483 35.849 26.5483 35.8779 26.5483V29.8753L36.1902 29.7837V26.4966C36.248 26.4766 36.3087 26.4622 36.3637 26.4394V29.7177C36.4678 29.6776 36.5718 29.6318 36.676 29.5859V26.2388L36.7049 26.2129L36.913 26.6285V29.457C37.02 29.4025 37.127 29.3395 37.2253 29.2764C39.735 27.7089 40.7237 24.121 40.5676 21.7969ZM38.6276 24.6139C38.6295 25.0455 38.5426 25.4729 38.372 25.8701C38.2015 26.2672 37.951 26.6257 37.6358 26.9236C37.8295 26.5999 37.9332 26.2312 37.9365 25.8549C37.9397 25.4785 37.8424 25.108 37.6545 24.781C37.4666 24.454 37.1946 24.1821 36.8663 23.993C36.5381 23.8039 36.1651 23.7043 35.7855 23.7043C35.4058 23.7043 35.0328 23.8039 34.7045 23.993C34.3763 24.1821 34.1043 24.454 33.9163 24.781C33.7284 25.108 33.6311 25.4785 33.6344 25.8549C33.6376 26.2312 33.7414 26.5999 33.935 26.9236C33.62 26.6257 33.3696 26.2672 33.1991 25.87C33.0286 25.4729 32.9416 25.0455 32.9433 24.6139C32.9433 22.8944 34.8371 21.5648 35.7855 21.5648C36.8437 21.5648 38.6276 22.9919 38.6276 24.6139ZM37.1096 24.5795C37.4187 24.897 37.6008 25.3151 37.6221 25.7558C37.6433 26.1965 37.5024 26.6299 37.2253 26.9752V26.5654L36.9362 25.9922C37.126 25.7453 37.2276 25.4429 37.2253 25.1325C37.2242 24.9424 37.1848 24.7544 37.1096 24.5795ZM34.3455 26.5625V26.9724C34.0685 26.627 33.9276 26.1937 33.9488 25.7529C33.9701 25.3122 34.1522 24.8942 34.4612 24.5766C34.3857 24.7524 34.3463 24.9414 34.3455 25.1325C34.3437 25.4429 34.4453 25.7452 34.6347 25.9922L34.3455 26.5625ZM31.2982 21.923L34.9296 20.9314V21.4559C33.8251 21.9287 32.6166 23.1753 32.6166 24.6082C32.6125 25.2137 32.771 25.8093 33.0758 26.3341C33.3807 26.8589 33.8209 27.2937 34.3513 27.5942V28.9125C32.0961 27.385 31.1883 24.1209 31.2982 21.923ZM34.6579 25.1325C34.6573 24.9114 34.7229 24.695 34.8465 24.5109C34.97 24.3266 35.1459 24.183 35.3519 24.098C35.5579 24.013 35.7847 23.9904 36.0037 24.0332C36.2226 24.076 36.4237 24.1822 36.5818 24.3384C36.7397 24.4946 36.8474 24.6938 36.8911 24.9106C36.9349 25.1275 36.9127 25.3524 36.8275 25.5567C36.7422 25.7611 36.5977 25.9359 36.4122 26.0588C36.2267 26.1817 36.0086 26.2474 35.7855 26.2474C35.4871 26.2466 35.2012 26.129 34.99 25.9202C34.7787 25.7114 34.6594 25.4282 34.6579 25.1325ZM37.2253 28.9125V27.6C37.7537 27.2984 38.1914 26.8628 38.4937 26.338C38.7961 25.8132 38.9521 25.2181 38.9456 24.6139C38.9456 23.181 37.7371 21.9201 36.6326 21.4616V20.94L40.264 21.9315C40.371 24.1152 39.466 27.385 37.2253 28.9125Z" fill="#D1A364"/>
<path d="M135.561 29.0414H137.119H145.391L141.708 18.1859L145.391 5.91492H137.119H135.561" fill="#58B6E7"/>
<path d="M150 5.91492H147.818L144.131 18.1859L147.818 29.0414H150L146.317 18.1859L150 5.91492Z" fill="#D1A364"/>
<path d="M55.3075 6.07824H60.7633L65.5542 21.6077L70.7585 6.01233H75.1218L80.3116 21.6077L85.1051 6.07824H90.4283L82.5261 29.1761H78.0819L72.8602 14.1711L67.6388 29.1761H63.2094L55.3075 6.07824Z" fill="#58B6E7"/>
<path d="M91.6855 6.07825H109.106V10.5689H96.7109V15.22H107.617V19.7077H96.7109V24.5193H109.27V29.007H91.6855V6.07825Z" fill="#58B6E7"/>
<path d="M112.041 6.07825H122.764C125.429 6.07825 127.442 6.75555 128.804 8.11008C129.322 8.61905 129.729 9.22758 130.002 9.89832C130.274 10.569 130.404 11.2877 130.386 12.0104V12.0734C130.396 12.6614 130.313 13.2474 130.14 13.81C129.986 14.2915 129.765 14.7496 129.484 15.1712C129.216 15.5674 128.895 15.9253 128.529 16.2345C128.175 16.5387 127.787 16.8031 127.373 17.0225C128.576 17.4414 129.657 18.1459 130.522 19.0743C131.293 19.9398 131.679 21.1358 131.679 22.6623V22.7282C131.7 23.6804 131.492 24.6241 131.069 25.4793C130.658 26.2681 130.058 26.9437 129.319 27.4452C128.487 28.0021 127.559 28.4023 126.581 28.6258C125.419 28.8993 124.228 29.0312 123.033 29.0184H112.047L112.041 6.07825ZM125.361 12.8615C125.379 12.5201 125.309 12.1798 125.157 11.8728C125.006 11.5659 124.777 11.3025 124.493 11.1076C123.915 10.7045 123.09 10.503 122.016 10.503H116.99V15.3489H121.683C122.807 15.3489 123.699 15.1578 124.361 14.7757C124.684 14.5901 124.948 14.3181 125.124 13.9908C125.299 13.6636 125.378 13.2941 125.352 12.9245L125.361 12.8615ZM126.65 22.0318C126.662 21.68 126.587 21.3306 126.432 21.0141C126.277 20.6974 126.046 20.4231 125.76 20.2149C125.164 19.7659 124.2 19.5415 122.869 19.5415H116.984V24.588H123.033C124.157 24.588 125.039 24.3856 125.679 23.9805C125.994 23.7803 126.249 23.4999 126.417 23.1687C126.585 22.8376 126.661 22.4677 126.636 22.0977L126.65 22.0318Z" fill="#58B6E7"/>
<path d="M123.756 37.1513H122.354V34.982H123.756C123.877 34.9775 123.998 35.0042 124.105 35.0594C124.212 35.1147 124.303 35.1966 124.369 35.2973C124.517 35.5185 124.593 35.7797 124.586 36.0451C124.592 36.3186 124.516 36.5878 124.369 36.8189C124.306 36.9229 124.216 37.0084 124.108 37.0667C124 37.1251 123.879 37.1544 123.756 37.1513ZM120.403 40.8367H122.36V38.8966H123.774C124.302 38.9107 124.822 38.7713 125.271 38.4953C125.677 38.2408 126.001 37.8784 126.208 37.4494C126.412 37.0185 126.518 36.5483 126.518 36.0724C126.518 35.5964 126.412 35.1264 126.208 34.6954C126 34.2662 125.676 33.9029 125.271 33.6466C124.822 33.3707 124.302 33.2312 123.774 33.2453H120.403V40.8367ZM99.5649 37.0539C99.5584 36.6624 99.6584 36.2764 99.8541 35.9363C100.019 35.6409 100.266 35.3983 100.565 35.237C100.853 35.0828 101.174 35.002 101.5 35.002C101.827 35.002 102.149 35.0828 102.436 35.237C102.734 35.4 102.98 35.6422 103.147 35.9363C103.326 36.2837 103.419 36.6682 103.419 37.0582C103.419 37.4482 103.326 37.8327 103.147 38.1801C102.98 38.4742 102.734 38.7164 102.436 38.8794C102.149 39.0337 101.827 39.1144 101.5 39.1144C101.174 39.1144 100.853 39.0337 100.565 38.8794C100.266 38.718 100.019 38.4754 99.8541 38.1801C99.6577 37.8372 99.5577 37.4482 99.5649 37.0539ZM105.408 37.0539C105.43 36.3004 105.239 35.5558 104.856 34.9046C104.509 34.3338 104.008 33.8704 103.41 33.5663C102.816 33.2704 102.159 33.1162 101.493 33.1162C100.828 33.1162 100.171 33.2704 99.5765 33.5663C98.9787 33.8708 98.478 34.3342 98.1309 34.9046C97.7642 35.5627 97.5722 36.3022 97.5722 37.0539C97.5722 37.8056 97.7642 38.545 98.1309 39.2032C98.478 39.7752 98.978 40.2405 99.5765 40.5472C100.17 40.8467 100.827 41.0028 101.493 41.0028C102.16 41.0028 102.816 40.8467 103.41 40.5472C104.008 40.241 104.509 39.7756 104.856 39.2032C105.239 38.5529 105.43 37.8093 105.408 37.0567V37.0539ZM84.3019 40.8395H86.3055V33.2482H84.3019V36.0051H81.9483V33.2482H79.9244V40.8395H81.9483V37.7933H84.3106L84.3019 40.8395ZM61.553 38.5183H59.6593C59.6377 39.0067 59.7868 39.4875 60.0814 39.8796C60.3772 40.2574 60.7709 40.5486 61.2206 40.7221C61.7024 40.9129 62.2167 41.0102 62.7356 41.0086C63.2544 41.0086 63.7684 40.9115 64.2507 40.7221C64.7031 40.5506 65.102 40.2639 65.4071 39.8909C65.6399 39.6363 65.8028 39.3267 65.8802 38.9917C65.9575 38.6568 65.9468 38.3077 65.849 37.9781C65.7512 37.6484 65.5696 37.3492 65.3216 37.1091C65.0736 36.869 64.7675 36.696 64.4328 36.6068C63.9102 36.4702 63.3775 36.3743 62.8396 36.3203C62.5281 36.2982 62.2219 36.2287 61.9318 36.1139C61.8352 36.0722 61.7538 36.002 61.6989 35.9127C61.6441 35.8234 61.6184 35.7196 61.6254 35.6153C61.623 35.4985 61.6531 35.3833 61.7123 35.2822C61.7714 35.1812 61.8573 35.0982 61.9607 35.0421C62.1959 34.9012 62.4667 34.8297 62.7414 34.8358C62.9916 34.8289 63.2385 34.8936 63.4526 35.0221C63.5452 35.0786 63.6207 35.1587 63.6715 35.2539C63.7224 35.3491 63.7466 35.4561 63.7417 35.5637H65.6009C65.6207 35.088 65.4803 34.6191 65.2019 34.2311C64.9232 33.8581 64.5459 33.5685 64.1118 33.3944C63.1926 33.0276 62.1659 33.0276 61.2466 33.3944C60.8193 33.5636 60.4465 33.845 60.1681 34.2082C59.8879 34.5883 59.7434 35.0501 59.7575 35.5207C59.7575 36.3231 60.0091 36.9163 60.5122 37.3004C60.9575 37.6328 61.6311 37.8334 62.5361 37.9079C62.8912 37.9182 63.2433 37.9761 63.5828 38.0799C63.6887 38.1094 63.7815 38.1737 63.8461 38.2621C63.9107 38.3505 63.9432 38.4579 63.9384 38.567C63.9353 38.6745 63.9006 38.7787 63.8384 38.8668C63.7762 38.9549 63.6894 39.023 63.5886 39.0628C63.329 39.1863 63.0436 39.2472 62.7558 39.2405C62.4602 39.248 62.1672 39.183 61.9029 39.0513C61.7963 39.0061 61.7053 38.9311 61.6411 38.8354C61.5769 38.7397 61.5422 38.6275 61.5415 38.5126" fill="#58B6E7"/>
<path d="M49.6001 5.93213H47.287L46.3734 7.0985C45.147 8.94291 44.4229 11.0704 44.2714 13.2742C44.1268 15.1082 44.7456 17.1343 45.3441 19.0916C46.1045 21.5905 46.969 24.4218 46.3387 27.2503C46.192 27.8865 45.9472 28.4964 45.613 29.0586H51.1556V5.93213H49.6001Z" fill="#58B6E7"/>
<path d="M12.4698 19.0744C13.0683 17.1113 13.687 15.0853 13.5453 13.2569C13.3944 11.0464 12.6671 8.91257 11.4348 7.06414L10.5356 5.91785H4.6084L8.29193 18.2147L4.6084 29.0672H12.2009C11.865 28.5035 11.6192 27.8915 11.4723 27.2532C10.842 24.4161 11.7065 21.5847 12.4698 19.0744Z" fill="#58B6E7"/>
<path d="M45.0058 6.04104L45.2458 5.73439L40.1051 0.00292969L39.7841 0.154822C36.4773 1.55227 32.9211 2.27729 29.3263 2.2869H28.9042H28.4965C24.9065 2.27271 21.3554 1.54988 18.0503 0.160559L17.7323 0.00866674L12.5858 5.74013L12.8257 6.04678C12.846 6.07257 14.948 8.79501 15.2862 13.1481C15.4539 15.3002 14.786 17.4839 14.1297 19.596C13.3954 22.0032 12.632 24.4935 13.167 26.8835C14.0748 30.9643 21.384 33.8329 24.5037 35.0594C24.9171 35.2199 25.241 35.346 25.4405 35.4349C26.9728 36.114 27.7275 36.9967 28.0976 37.6501C28.3867 38.1458 28.9042 39.1259 28.9042 39.1259C28.9042 39.1259 29.4218 38.1659 29.7138 37.6501C30.0839 36.9967 30.8385 36.1111 32.368 35.4377C32.5675 35.3489 32.8942 35.2199 33.3048 35.0594C36.4273 33.8358 43.7336 30.97 44.6473 26.8892C45.1793 24.5021 44.4218 22.0175 43.6845 19.6017C43.0397 17.4897 42.3747 15.3031 42.5424 13.1538C42.7137 10.6121 43.5639 8.16123 45.0058 6.05252V6.04104ZM15.0289 19.8653C15.6997 17.673 16.3936 15.4034 16.2115 13.0764C16.0315 10.4851 15.1974 7.98004 13.7857 5.79169L17.9578 1.14635C21.3012 2.51169 24.8806 3.2193 28.4965 3.22975H28.9042C32.1168 3.26316 35.3119 2.7554 38.3529 1.7281L13.9389 24.7714C14.0141 23.201 14.5172 21.5676 15.0289 19.8682V19.8653ZM14.0835 26.6857C14.0363 26.4661 14.0006 26.2442 13.9765 26.0209L40.0733 1.37563L43.9534 5.69717L17.5386 30.629C15.8038 29.4827 14.4131 28.1387 14.069 26.6714L14.0835 26.6857ZM42.7708 19.8596C43.5023 22.2582 44.1934 24.525 43.7134 26.6772C42.9154 30.2737 35.6872 33.1164 32.9578 34.1825C32.5357 34.3487 32.2032 34.4691 31.9863 34.5752C30.2515 35.3403 29.361 36.3691 28.9042 37.1543C28.4474 36.3519 27.5569 35.3231 25.8221 34.5579C25.6052 34.4634 25.2728 34.3315 24.8507 34.1653C23.405 33.5922 20.7045 32.5376 18.3568 31.1305L42.8286 8.03269C42.1508 9.63105 41.7378 11.3274 41.6057 13.0563C41.4235 15.3833 42.1174 17.6415 42.7853 19.8452" fill="#D1A364"/>
</g>
</svg>
